<svg xmlns="http://www.w3.org/2000/svg" width="1200" height="640" viewBox="0 0 1200 640">
  <style>
    .bg { fill: #0b1220; }
    .mono { font-family: ui-monospace, SFMono-Regular, Menlo, Monaco, Consolas, "Liberation Mono", "Courier New", monospace; font-size: 18px; }
    .dim { fill: #9aa4b2; }
    .txt { fill: #e5e7eb; }
    .ok  { fill: #34d399; }
    .err { fill: #f87171; }
    .run { fill: #22d3ee; }
  </style>

  <rect class="bg" x="0" y="0" width="1200" height="640" rx="14" />

  <!-- Title bar -->
  <circle cx="28" cy="26" r="7" fill="#ff5f57" />
  <circle cx="52" cy="26" r="7" fill="#febc2e" />
  <circle cx="76" cy="26" r="7" fill="#28c840" />
  <text class="mono dim" x="110" y="32">cosmos-db-nosql-nodejs-quickstart — azd doctor check</text>

  <!-- Body text -->
  <g class="mono" transform="translate(24,72)">
    <text class="run" x="0"  y="0">(-) Running  Doctor Checks</text>
    <text class="dim" x="430" y="0">(Starting...)</text>

    <text class="run" x="0"  y="34">(-) Running  AZD Checks</text>
    <text class="dim" x="430" y="34">(Checking tools)</text>

    <text class="ok"  x="0"  y="68">(✓) Done     azd</text>
    <text class="dim" x="430" y="68">(azd version 1.22.3)</text>

    <text class="ok"  x="0"  y="102">(✓) Done     git</text>
    <text class="dim" x="430" y="102">(git version 2.50.1)</text>

    <text class="ok"  x="0"  y="136">(✓) Done     gh</text>
    <text class="dim" x="430" y="136">(gh version 2.83.2)</text>

    <text class="run" x="0"  y="188">(-) Running  Project Checks</text>
    <text class="dim" x="430" y="188">(Checking azd project)</text>

    <text class="ok"  x="0"  y="222">(✓) Done     Project File</text>
    <text class="dim" x="430" y="222">(azure.yaml)</text>

    <text class="txt" x="0"  y="256">(i) Info     Project Name</text>
    <text class="dim" x="430" y="256">(cosmos-db-nosql-nodejs-quickstart)</text>

    <text class="ok"  x="0"  y="290">(✓) Done     azd project</text>
    <text class="dim" x="430" y="290">(Initialized)</text>

    <text class="run" x="0"  y="342">(-) Running  Project Hooks</text>
    <text class="dim" x="430" y="342">(Checking requirements)</text>

    <text class="ok"  x="0"  y="376">(✓) Done     bash</text>
    <text class="dim" x="430" y="376">(GNU bash 3.2)</text>

    <text class="run" x="0"  y="428">(-) Running  Services</text>
    <text class="dim" x="430" y="428">(Checking requirements)</text>

    <text class="run" x="0"  y="462">(-) Running  Service</text>
    <text class="dim" x="430" y="462">(typescript-web — containerapp)</text>

    <text class="ok"  x="0"  y="496">(✓) Done     node</text>
    <text class="dim" x="430" y="496">(v22.18.0)</text>

    <text class="ok"  x="0"  y="530">(✓) Done     docker</text>
    <text class="dim" x="430" y="530">(Docker version 28.5.1)</text>

    <text class="err" x="0"  y="564">(x) Error    docker Daemon</text>
    <text class="dim" x="430" y="564">(Not running)</text>

    <text class="run" x="0"  y="616">(-) Running  Azd Auth</text>
    <text class="dim" x="430" y="616">(Checking login status)</text>
  </g>
</svg>
